<svg width="14" height="13" viewBox="0 0 14 13" fill="none" xmlns="http://www.w3.org/2000/svg">
<path d="M0.5 1.11917V4.86917M0.5 4.86917H4.25M0.5 4.86917L3.4 2.14417C4.26307 1.28256 5.38278 0.724776 6.59042 0.554867C7.79806 0.384959 9.02821 0.612129 10.0955 1.20215C11.1628 1.79217 12.0095 2.71307 12.5079 3.82611C13.0063 4.93914 13.1295 6.18401 12.8589 7.37315C12.5883 8.56228 11.9385 9.63126 11.0076 10.419C10.0766 11.2068 8.91484 11.6706 7.69732 11.7407C6.4798 11.8108 5.27249 11.4833 4.25729 10.8075C3.24208 10.1318 2.474 9.14441 2.06875 7.99417" stroke="#E6EFFF" stroke-linecap="round" stroke-linejoin="round"/>
</svg>
