<svg width="370" height="93" viewBox="0 0 370 93" fill="none" xmlns="http://www.w3.org/2000/svg">
<g filter="url(#filter0_i_22_483)">
<path d="M50.496 14.2V59H46.144V17.912H45.76L30.272 47.608H28.288L10.688 21.432H10.304L11.712 59H7.36L8.96 13.304H10.24L30.4 43.256H30.784L45.888 14.2H50.496ZM52.4125 36.6C52.4125 33.3147 52.9885 30.264 54.1405 27.448C55.3352 24.5893 56.9778 22.1147 59.0685 20.024C61.2018 17.8907 63.6765 16.248 66.4925 15.096C69.3512 13.9013 72.4232 13.304 75.7085 13.304C78.9938 13.304 82.0445 13.9013 84.8605 15.096C87.7192 16.248 90.1938 17.8907 92.2845 20.024C94.4178 22.1147 96.0605 24.5893 97.2125 27.448C98.4072 30.264 99.0045 33.3147 99.0045 36.6C99.0045 39.8853 98.4072 42.9573 97.2125 45.816C96.0605 48.632 94.4178 51.1067 92.2845 53.24C90.1938 55.3307 87.7192 56.9733 84.8605 58.168C82.0445 59.32 78.9938 59.896 75.7085 59.896C72.4232 59.896 69.3512 59.32 66.4925 58.168C63.6765 56.9733 61.2018 55.3307 59.0685 53.24C56.9778 51.1067 55.3352 48.632 54.1405 45.816C52.9885 42.9573 52.4125 39.8853 52.4125 36.6ZM57.2765 36.6C57.2765 40.952 58.0445 44.7707 59.5805 48.056C61.1165 51.2987 63.2712 53.8373 66.0445 55.672C68.8178 57.464 72.0392 58.36 75.7085 58.36C79.3778 58.36 82.5992 57.464 85.3725 55.672C88.1458 53.8373 90.3005 51.2773 91.8365 47.992C93.3725 44.7067 94.1405 40.9093 94.1405 36.6C94.1405 32.2907 93.3725 28.5147 91.8365 25.272C90.3005 21.9867 88.1458 19.4267 85.3725 17.592C82.5992 15.7573 79.3778 14.84 75.7085 14.84C72.0392 14.84 68.8178 15.7573 66.0445 17.592C63.3138 19.384 61.1592 21.9227 59.5805 25.208C58.0445 28.4507 57.2765 32.248 57.2765 36.6ZM99.945 59L101.545 13.304H102.313L134.505 52.216H134.889L133.481 14.2H137.833L136.233 59.896H135.465L103.273 20.984H102.889L104.297 59H99.945ZM135.354 59L152.57 14.2H156.538L173.754 59H169.082L161.146 38.008H146.618L140.026 59H135.354ZM153.018 17.528L147.066 36.472H160.57L153.402 17.528H153.018ZM172.615 14.2H181.191C185.714 14.2 189.212 15.16 191.687 17.08C194.204 18.9573 195.463 21.6027 195.463 25.016C195.463 27.6613 194.674 29.8587 193.095 31.608C191.559 33.3573 189.319 34.5307 186.375 35.128V35.512C189.191 36.0667 191.495 37.3893 193.287 39.48C195.079 41.5707 196.423 44.152 197.319 47.224C198.13 50.04 198.919 52.2373 199.687 53.816C200.498 55.352 201.372 56.4613 202.311 57.144C203.292 57.8267 204.444 58.3173 205.767 58.616V59H203.143C201.266 59 199.708 58.6587 198.471 57.976C197.276 57.2933 196.252 56.1413 195.399 54.52C194.546 52.8987 193.735 50.6587 192.967 47.8C191.73 43.4053 190.087 40.2907 188.039 38.456C185.991 36.6213 183.495 35.704 180.551 35.704H180.167V34.552H180.551C187.42 34.552 190.855 31.3947 190.855 25.08C190.855 18.8507 187.634 15.736 181.191 15.736H176.967V59H172.615V14.2ZM236.619 53.496L236.235 57.4C235.041 57.912 233.59 58.36 231.883 58.744C230.177 59.128 228.449 59.4053 226.699 59.576C224.95 59.7893 223.393 59.896 222.027 59.896C218.571 59.896 215.371 59.32 212.427 58.168C209.483 56.9733 206.902 55.3307 204.683 53.24C202.507 51.1493 200.801 48.696 199.563 45.88C198.326 43.0213 197.707 39.928 197.707 36.6C197.707 33.272 198.326 30.2 199.563 27.384C200.801 24.5253 202.507 22.0507 204.683 19.96C206.902 17.8693 209.483 16.248 212.427 15.096C215.371 13.9013 218.571 13.304 222.027 13.304C223.435 13.304 225.014 13.4107 226.763 13.624C228.513 13.8373 230.219 14.136 231.883 14.52C233.547 14.8613 234.955 15.2667 236.107 15.736L235.787 19.32H235.403C233.825 17.8693 231.841 16.76 229.451 15.992C227.062 15.224 224.587 14.84 222.027 14.84C218.187 14.84 214.795 15.7573 211.851 17.592C208.95 19.384 206.667 21.9227 205.003 25.208C203.382 28.4507 202.571 32.248 202.571 36.6C202.571 40.9947 203.382 44.8133 205.003 48.056C206.667 51.2987 208.95 53.8373 211.851 55.672C214.753 57.464 218.145 58.36 222.027 58.36C224.929 58.36 227.617 57.8907 230.091 56.952C232.609 56.0133 234.657 54.8613 236.235 53.496H236.619ZM237.888 59V14.2H242.24V34.936H269.12V14.2H273.472V59H269.12V36.472H242.24V59H237.888Z" fill="url(#paint0_linear_22_483)"/>
</g>
<g filter="url(#filter1_i_22_483)">
<path d="M1.40909 89V77.3636H2.81818V82.5455H9.02273V77.3636H10.4318V89H9.02273V83.7955H2.81818V89H1.40909ZM15.6392 89.2045C15.0862 89.2045 14.5843 89.1004 14.1335 88.892C13.6828 88.6799 13.3248 88.375 13.0597 87.9773C12.7945 87.5758 12.6619 87.0909 12.6619 86.5227C12.6619 86.0227 12.7604 85.6174 12.9574 85.3068C13.1544 84.9924 13.4176 84.7462 13.7472 84.5682C14.0767 84.3902 14.4403 84.2576 14.8381 84.1705C15.2396 84.0795 15.643 84.0076 16.0483 83.9545C16.5786 83.8864 17.0085 83.8352 17.3381 83.8011C17.6714 83.7633 17.9138 83.7008 18.0653 83.6136C18.2206 83.5265 18.2983 83.375 18.2983 83.1591V83.1136C18.2983 82.553 18.1449 82.1174 17.8381 81.8068C17.535 81.4962 17.0748 81.3409 16.4574 81.3409C15.8172 81.3409 15.3153 81.4811 14.9517 81.7614C14.5881 82.0417 14.3324 82.3409 14.1847 82.6591L12.9119 82.2045C13.1392 81.6742 13.4422 81.2614 13.821 80.9659C14.2036 80.6667 14.6203 80.4583 15.071 80.3409C15.5256 80.2197 15.9725 80.1591 16.4119 80.1591C16.6922 80.1591 17.0142 80.1932 17.3778 80.2614C17.7453 80.3258 18.0994 80.4602 18.4403 80.6648C18.785 80.8693 19.071 81.178 19.2983 81.5909C19.5256 82.0038 19.6392 82.5568 19.6392 83.25V89H18.2983V87.8182H18.2301C18.1392 88.0076 17.9877 88.2102 17.7756 88.4261C17.5634 88.642 17.2813 88.8258 16.929 88.9773C16.5767 89.1288 16.1468 89.2045 15.6392 89.2045ZM15.8438 88C16.3741 88 16.821 87.8958 17.1847 87.6875C17.5521 87.4792 17.8286 87.2102 18.0142 86.8807C18.2036 86.5511 18.2983 86.2045 18.2983 85.8409V84.6136C18.2415 84.6818 18.1165 84.7443 17.9233 84.8011C17.7339 84.8542 17.5142 84.9015 17.2642 84.9432C17.018 84.9811 16.7775 85.0152 16.5426 85.0455C16.3116 85.072 16.1241 85.0947 15.9801 85.1136C15.6316 85.1591 15.3059 85.233 15.0028 85.3352C14.7036 85.4337 14.4612 85.5833 14.2756 85.7841C14.0938 85.9811 14.0028 86.25 14.0028 86.5909C14.0028 87.0568 14.1752 87.4091 14.5199 87.6477C14.8684 87.8826 15.3097 88 15.8438 88ZM25.6321 89.1818C24.8139 89.1818 24.1094 88.9886 23.5185 88.6023C22.9276 88.2159 22.473 87.6837 22.1548 87.0057C21.8366 86.3277 21.6776 85.553 21.6776 84.6818C21.6776 83.7955 21.8404 83.0133 22.1662 82.3352C22.4957 81.6534 22.9541 81.1212 23.5412 80.7386C24.1321 80.3523 24.8215 80.1591 25.6094 80.1591C26.223 80.1591 26.776 80.2727 27.2685 80.5C27.7609 80.7273 28.1643 81.0455 28.4787 81.4545C28.7931 81.8636 28.9882 82.3409 29.0639 82.8864H27.723C27.6207 82.4886 27.3935 82.1364 27.0412 81.8295C26.6927 81.5189 26.223 81.3636 25.6321 81.3636C25.1094 81.3636 24.651 81.5 24.2571 81.7727C23.867 82.0417 23.562 82.4223 23.3423 82.9148C23.1264 83.4034 23.0185 83.9773 23.0185 84.6364C23.0185 85.3106 23.1245 85.8977 23.3366 86.3977C23.5526 86.8977 23.8556 87.286 24.2457 87.5625C24.6397 87.839 25.1018 87.9773 25.6321 87.9773C25.9806 87.9773 26.2969 87.9167 26.581 87.7955C26.8651 87.6742 27.1056 87.5 27.3026 87.2727C27.4995 87.0455 27.6397 86.7727 27.723 86.4545H29.0639C28.9882 86.9697 28.8007 87.4337 28.5014 87.8466C28.206 88.2557 27.8139 88.5814 27.3253 88.8239C26.8404 89.0625 26.276 89.1818 25.6321 89.1818ZM30.2514 89V87.75H30.5696C30.831 87.75 31.0488 87.6989 31.223 87.5966C31.3973 87.4905 31.5374 87.3068 31.6435 87.0455C31.7533 86.7803 31.8366 86.4129 31.8935 85.9432C31.9541 85.4697 31.9976 84.8674 32.0241 84.1364L32.1832 80.2727H38.0014V89H36.6605V81.5227H33.456L33.3196 84.6364C33.2893 85.3523 33.2249 85.983 33.1264 86.5284C33.0317 87.0701 32.8859 87.5246 32.6889 87.892C32.4957 88.2595 32.2382 88.536 31.9162 88.7216C31.5942 88.9072 31.1908 89 30.706 89H30.2514ZM44.1207 89.1818C43.2798 89.1818 42.5545 88.9962 41.9446 88.625C41.3385 88.25 40.8707 87.7273 40.5412 87.0568C40.2154 86.3826 40.0526 85.5985 40.0526 84.7045C40.0526 83.8106 40.2154 83.0227 40.5412 82.3409C40.8707 81.6553 41.3291 81.1212 41.9162 80.7386C42.5071 80.3523 43.1965 80.1591 43.9844 80.1591C44.4389 80.1591 44.8878 80.2348 45.331 80.3864C45.7741 80.5379 46.1776 80.7841 46.5412 81.125C46.9048 81.4621 47.1946 81.9091 47.4105 82.4659C47.6264 83.0227 47.7344 83.7083 47.7344 84.5227V85.0909H41.0071V83.9318H46.3707C46.3707 83.4394 46.2723 83 46.0753 82.6136C45.8821 82.2273 45.6056 81.9223 45.2457 81.6989C44.8897 81.4754 44.4692 81.3636 43.9844 81.3636C43.4503 81.3636 42.9882 81.4962 42.598 81.7614C42.2116 82.0227 41.9143 82.3636 41.706 82.7841C41.4976 83.2045 41.3935 83.6553 41.3935 84.1364V84.9091C41.3935 85.5682 41.5071 86.1269 41.7344 86.5852C41.9654 87.0398 42.2855 87.3864 42.6946 87.625C43.1037 87.8598 43.5791 87.9773 44.1207 87.9773C44.473 87.9773 44.7912 87.928 45.0753 87.8295C45.3632 87.7273 45.6113 87.5758 45.8196 87.375C46.0279 87.1705 46.1889 86.9167 46.3026 86.6136L47.598 86.9773C47.4616 87.4167 47.2325 87.803 46.9105 88.1364C46.5885 88.4659 46.1908 88.7235 45.7173 88.9091C45.2438 89.0909 44.7116 89.1818 44.1207 89.1818ZM48.8423 91.5V87.75H49.5696C49.7476 87.5644 49.901 87.3636 50.0298 87.1477C50.1586 86.9318 50.2704 86.6761 50.3651 86.3807C50.4635 86.0814 50.5469 85.7178 50.6151 85.2898C50.6832 84.858 50.7438 84.3371 50.7969 83.7273L51.0923 80.2727H56.6378V87.75H57.9787V91.5H56.6378V89H50.1832V91.5H48.8423ZM51.0923 87.75H55.2969V81.5227H52.3423L52.1151 83.7273C52.0204 84.6402 51.9029 85.4375 51.7628 86.1193C51.6226 86.8011 51.3991 87.3447 51.0923 87.75ZM61.0994 87.0227L65.304 80.2727H66.8494V89H65.5085V82.25L61.3267 89H59.7585V80.2727H61.0994V87.0227ZM72.9645 89.1818C72.1236 89.1818 71.3982 88.9962 70.7884 88.625C70.1823 88.25 69.7145 87.7273 69.3849 87.0568C69.0592 86.3826 68.8963 85.5985 68.8963 84.7045C68.8963 83.8106 69.0592 83.0227 69.3849 82.3409C69.7145 81.6553 70.1728 81.1212 70.7599 80.7386C71.3509 80.3523 72.0402 80.1591 72.8281 80.1591C73.2827 80.1591 73.7315 80.2348 74.1747 80.3864C74.6179 80.5379 75.0213 80.7841 75.3849 81.125C75.7486 81.4621 76.0384 81.9091 76.2543 82.4659C76.4702 83.0227 76.5781 83.7083 76.5781 84.5227V85.0909H69.8509V83.9318H75.2145C75.2145 83.4394 75.116 83 74.919 82.6136C74.7259 82.2273 74.4493 81.9223 74.0895 81.6989C73.7334 81.4754 73.313 81.3636 72.8281 81.3636C72.294 81.3636 71.8319 81.4962 71.4418 81.7614C71.0554 82.0227 70.758 82.3636 70.5497 82.7841C70.3414 83.2045 70.2372 83.6553 70.2372 84.1364V84.9091C70.2372 85.5682 70.3509 86.1269 70.5781 86.5852C70.8092 87.0398 71.1293 87.3864 71.5384 87.625C71.9474 87.8598 72.4228 87.9773 72.9645 87.9773C73.3168 87.9773 73.6349 87.928 73.919 87.8295C74.2069 87.7273 74.455 87.5758 74.6634 87.375C74.8717 87.1705 75.0327 86.9167 75.1463 86.6136L76.4418 86.9773C76.3054 87.4167 76.0762 87.803 75.7543 88.1364C75.4323 88.4659 75.0346 88.7235 74.5611 88.9091C74.0876 89.0909 73.5554 89.1818 72.9645 89.1818ZM83.1179 92.2727V80.2727H84.4134V81.6591H84.5724C84.6709 81.5076 84.8073 81.3144 84.9815 81.0795C85.1596 80.8409 85.4134 80.6288 85.7429 80.4432C86.0762 80.2538 86.527 80.1591 87.0952 80.1591C87.83 80.1591 88.4777 80.3428 89.0384 80.7102C89.599 81.0777 90.0365 81.5985 90.3509 82.2727C90.6652 82.947 90.8224 83.7424 90.8224 84.6591C90.8224 85.5833 90.6652 86.3845 90.3509 87.0625C90.0365 87.7367 89.6009 88.2595 89.044 88.6307C88.4872 88.9981 87.8452 89.1818 87.1179 89.1818C86.5573 89.1818 86.1084 89.089 85.7713 88.9034C85.4342 88.714 85.1747 88.5 84.9929 88.2614C84.8111 88.0189 84.6709 87.8182 84.5724 87.6591H84.4588V92.2727H83.1179ZM84.4361 84.6364C84.4361 85.2955 84.5327 85.8769 84.7259 86.3807C84.919 86.8807 85.2012 87.2727 85.5724 87.5568C85.9437 87.8371 86.3982 87.9773 86.9361 87.9773C87.4967 87.9773 87.9645 87.8295 88.3395 87.5341C88.7183 87.2348 89.0024 86.8333 89.1918 86.3295C89.3849 85.822 89.4815 85.2576 89.4815 84.6364C89.4815 84.0227 89.3868 83.4697 89.1974 82.9773C89.0118 82.4811 88.7296 82.089 88.3509 81.8011C87.9759 81.5095 87.5043 81.3636 86.9361 81.3636C86.3906 81.3636 85.9323 81.5019 85.5611 81.7784C85.1899 82.0511 84.9096 82.4337 84.7202 82.9261C84.5308 83.4148 84.4361 83.9848 84.4361 84.6364ZM96.4134 89.1818C95.6255 89.1818 94.9342 88.9943 94.3395 88.6193C93.7486 88.2443 93.2865 87.7197 92.9531 87.0455C92.6236 86.3712 92.4588 85.5833 92.4588 84.6818C92.4588 83.7727 92.6236 82.9792 92.9531 82.3011C93.2865 81.6231 93.7486 81.0966 94.3395 80.7216C94.9342 80.3466 95.6255 80.1591 96.4134 80.1591C97.2012 80.1591 97.8906 80.3466 98.4815 80.7216C99.0762 81.0966 99.5384 81.6231 99.8679 82.3011C100.201 82.9792 100.368 83.7727 100.368 84.6818C100.368 85.5833 100.201 86.3712 99.8679 87.0455C99.5384 87.7197 99.0762 88.2443 98.4815 88.6193C97.8906 88.9943 97.2012 89.1818 96.4134 89.1818ZM96.4134 87.9773C97.0118 87.9773 97.5043 87.8239 97.8906 87.517C98.277 87.2102 98.563 86.8068 98.7486 86.3068C98.9342 85.8068 99.027 85.2652 99.027 84.6818C99.027 84.0985 98.9342 83.5549 98.7486 83.0511C98.563 82.5473 98.277 82.1402 97.8906 81.8295C97.5043 81.5189 97.0118 81.3636 96.4134 81.3636C95.8149 81.3636 95.3224 81.5189 94.9361 81.8295C94.5497 82.1402 94.2637 82.5473 94.0781 83.0511C93.8925 83.5549 93.7997 84.0985 93.7997 84.6818C93.7997 85.2652 93.8925 85.8068 94.0781 86.3068C94.2637 86.8068 94.5497 87.2102 94.9361 87.517C95.3224 87.8239 95.8149 87.9773 96.4134 87.9773ZM105.96 89.1818C105.142 89.1818 104.438 88.9886 103.847 88.6023C103.256 88.2159 102.801 87.6837 102.483 87.0057C102.165 86.3277 102.006 85.553 102.006 84.6818C102.006 83.7955 102.169 83.0133 102.494 82.3352C102.824 81.6534 103.282 81.1212 103.869 80.7386C104.46 80.3523 105.15 80.1591 105.938 80.1591C106.551 80.1591 107.104 80.2727 107.597 80.5C108.089 80.7273 108.492 81.0455 108.807 81.4545C109.121 81.8636 109.316 82.3409 109.392 82.8864H108.051C107.949 82.4886 107.722 82.1364 107.369 81.8295C107.021 81.5189 106.551 81.3636 105.96 81.3636C105.438 81.3636 104.979 81.5 104.585 81.7727C104.195 82.0417 103.89 82.4223 103.67 82.9148C103.455 83.4034 103.347 83.9773 103.347 84.6364C103.347 85.3106 103.453 85.8977 103.665 86.3977C103.881 86.8977 104.184 87.286 104.574 87.5625C104.968 87.839 105.43 87.9773 105.96 87.9773C106.309 87.9773 106.625 87.9167 106.909 87.7955C107.193 87.6742 107.434 87.5 107.631 87.2727C107.828 87.0455 107.968 86.7727 108.051 86.4545H109.392C109.316 86.9697 109.129 87.4337 108.83 87.8466C108.534 88.2557 108.142 88.5814 107.653 88.8239C107.169 89.0625 106.604 89.1818 105.96 89.1818ZM111.352 89V80.2727H112.693V84.0682H113.58L116.716 80.2727H118.443L114.92 84.4773L118.489 89H116.761L113.898 85.3182H112.693V89H111.352ZM123.132 89.1818C122.344 89.1818 121.653 88.9943 121.058 88.6193C120.467 88.2443 120.005 87.7197 119.672 87.0455C119.342 86.3712 119.178 85.5833 119.178 84.6818C119.178 83.7727 119.342 82.9792 119.672 82.3011C120.005 81.6231 120.467 81.0966 121.058 80.7216C121.653 80.3466 122.344 80.1591 123.132 80.1591C123.92 80.1591 124.609 80.3466 125.2 80.7216C125.795 81.0966 126.257 81.6231 126.587 82.3011C126.92 82.9792 127.087 83.7727 127.087 84.6818C127.087 85.5833 126.92 86.3712 126.587 87.0455C126.257 87.7197 125.795 88.2443 125.2 88.6193C124.609 88.9943 123.92 89.1818 123.132 89.1818ZM123.132 87.9773C123.731 87.9773 124.223 87.8239 124.609 87.517C124.996 87.2102 125.282 86.8068 125.467 86.3068C125.653 85.8068 125.746 85.2652 125.746 84.6818C125.746 84.0985 125.653 83.5549 125.467 83.0511C125.282 82.5473 124.996 82.1402 124.609 81.8295C124.223 81.5189 123.731 81.3636 123.132 81.3636C122.534 81.3636 122.041 81.5189 121.655 81.8295C121.268 82.1402 120.982 82.5473 120.797 83.0511C120.611 83.5549 120.518 84.0985 120.518 84.6818C120.518 85.2652 120.611 85.8068 120.797 86.3068C120.982 86.8068 121.268 87.2102 121.655 87.517C122.041 87.8239 122.534 87.9773 123.132 87.9773ZM129.134 80.2727H130.474V87.75H133.77V80.2727H135.111V87.75H138.406V80.2727H139.747V89H129.134V80.2727ZM143.537 87.0227L147.741 80.2727H149.287V89H147.946V82.25L143.764 89H142.196V80.2727H143.537V87.0227ZM152.72 89.0909C152.44 89.0909 152.199 88.9905 151.999 88.7898C151.798 88.589 151.697 88.3485 151.697 88.0682C151.697 87.7879 151.798 87.5473 151.999 87.3466C152.199 87.1458 152.44 87.0455 152.72 87.0455C153 87.0455 153.241 87.1458 153.442 87.3466C153.643 87.5473 153.743 87.7879 153.743 88.0682C153.743 88.2538 153.696 88.4242 153.601 88.5795C153.51 88.7348 153.387 88.8598 153.232 88.9545C153.08 89.0455 152.91 89.0909 152.72 89.0909ZM170.195 81H168.786C168.702 80.5947 168.556 80.2386 168.348 79.9318C168.143 79.625 167.893 79.3674 167.598 79.1591C167.306 78.947 166.982 78.7879 166.626 78.6818C166.27 78.5758 165.899 78.5227 165.513 78.5227C164.808 78.5227 164.17 78.7008 163.598 79.0568C163.03 79.4129 162.577 79.9375 162.24 80.6307C161.907 81.3239 161.74 82.1742 161.74 83.1818C161.74 84.1894 161.907 85.0398 162.24 85.733C162.577 86.4261 163.03 86.9508 163.598 87.3068C164.17 87.6629 164.808 87.8409 165.513 87.8409C165.899 87.8409 166.27 87.7879 166.626 87.6818C166.982 87.5758 167.306 87.4186 167.598 87.2102C167.893 86.9981 168.143 86.7386 168.348 86.4318C168.556 86.1212 168.702 85.7652 168.786 85.3636H170.195C170.089 85.9583 169.895 86.4905 169.615 86.9602C169.335 87.4299 168.986 87.8295 168.57 88.1591C168.153 88.4848 167.685 88.733 167.166 88.9034C166.651 89.0739 166.1 89.1591 165.513 89.1591C164.52 89.1591 163.638 88.9167 162.865 88.4318C162.092 87.947 161.484 87.2576 161.041 86.3636C160.598 85.4697 160.376 84.4091 160.376 83.1818C160.376 81.9545 160.598 80.8939 161.041 80C161.484 79.1061 162.092 78.4167 162.865 77.9318C163.638 77.447 164.52 77.2045 165.513 77.2045C166.1 77.2045 166.651 77.2898 167.166 77.4602C167.685 77.6307 168.153 77.8807 168.57 78.2102C168.986 78.536 169.335 78.9337 169.615 79.4034C169.895 79.8693 170.089 80.4015 170.195 81ZM175.835 89.1818C175.047 89.1818 174.356 88.9943 173.761 88.6193C173.17 88.2443 172.708 87.7197 172.375 87.0455C172.045 86.3712 171.881 85.5833 171.881 84.6818C171.881 83.7727 172.045 82.9792 172.375 82.3011C172.708 81.6231 173.17 81.0966 173.761 80.7216C174.356 80.3466 175.047 80.1591 175.835 80.1591C176.623 80.1591 177.313 80.3466 177.903 80.7216C178.498 81.0966 178.96 81.6231 179.29 82.3011C179.623 82.9792 179.79 83.7727 179.79 84.6818C179.79 85.5833 179.623 86.3712 179.29 87.0455C178.96 87.7197 178.498 88.2443 177.903 88.6193C177.313 88.9943 176.623 89.1818 175.835 89.1818ZM175.835 87.9773C176.434 87.9773 176.926 87.8239 177.312 87.517C177.699 87.2102 177.985 86.8068 178.17 86.3068C178.356 85.8068 178.449 85.2652 178.449 84.6818C178.449 84.0985 178.356 83.5549 178.17 83.0511C177.985 82.5473 177.699 82.1402 177.312 81.8295C176.926 81.5189 176.434 81.3636 175.835 81.3636C175.237 81.3636 174.744 81.5189 174.358 81.8295C173.972 82.1402 173.686 82.5473 173.5 83.0511C173.314 83.5549 173.222 84.0985 173.222 84.6818C173.222 85.2652 173.314 85.8068 173.5 86.3068C173.686 86.8068 173.972 87.2102 174.358 87.517C174.744 87.8239 175.237 87.9773 175.835 87.9773ZM181.837 89V80.2727H185.405C186.344 80.2727 187.09 80.4848 187.643 80.9091C188.196 81.3333 188.473 81.8939 188.473 82.5909C188.473 83.1212 188.316 83.5322 188.001 83.8239C187.687 84.1117 187.284 84.3068 186.791 84.4091C187.113 84.4545 187.426 84.5682 187.729 84.75C188.036 84.9318 188.289 85.1818 188.49 85.5C188.691 85.8144 188.791 86.2008 188.791 86.6591C188.791 87.1061 188.678 87.5057 188.45 87.858C188.223 88.2102 187.897 88.4886 187.473 88.6932C187.049 88.8977 186.541 89 185.95 89H181.837ZM183.109 87.7727H185.95C186.412 87.7727 186.774 87.6629 187.036 87.4432C187.297 87.2235 187.428 86.9242 187.428 86.5455C187.428 86.0947 187.297 85.7405 187.036 85.483C186.774 85.2216 186.412 85.0909 185.95 85.0909H183.109V87.7727ZM183.109 83.9318H185.405C185.765 83.9318 186.073 83.8826 186.331 83.7841C186.589 83.6818 186.786 83.5379 186.922 83.3523C187.062 83.1629 187.132 82.9394 187.132 82.6818C187.132 82.3144 186.979 82.0265 186.672 81.8182C186.365 81.6061 185.943 81.5 185.405 81.5H183.109V83.9318ZM190.821 92.2727V80.2727H192.116V81.6591H192.276C192.374 81.5076 192.51 81.3144 192.685 81.0795C192.863 80.8409 193.116 80.6288 193.446 80.4432C193.779 80.2538 194.23 80.1591 194.798 80.1591C195.533 80.1591 196.181 80.3428 196.741 80.7102C197.302 81.0777 197.74 81.5985 198.054 82.2727C198.368 82.947 198.526 83.7424 198.526 84.6591C198.526 85.5833 198.368 86.3845 198.054 87.0625C197.74 87.7367 197.304 88.2595 196.747 88.6307C196.19 88.9981 195.548 89.1818 194.821 89.1818C194.26 89.1818 193.812 89.089 193.474 88.9034C193.137 88.714 192.878 88.5 192.696 88.2614C192.514 88.0189 192.374 87.8182 192.276 87.6591H192.162V92.2727H190.821ZM192.139 84.6364C192.139 85.2955 192.236 85.8769 192.429 86.3807C192.622 86.8807 192.904 87.2727 193.276 87.5568C193.647 87.8371 194.101 87.9773 194.639 87.9773C195.2 87.9773 195.668 87.8295 196.043 87.5341C196.421 87.2348 196.705 86.8333 196.895 86.3295C197.088 85.822 197.185 85.2576 197.185 84.6364C197.185 84.0227 197.09 83.4697 196.901 82.9773C196.715 82.4811 196.433 82.089 196.054 81.8011C195.679 81.5095 195.207 81.3636 194.639 81.3636C194.094 81.3636 193.635 81.5019 193.264 81.7784C192.893 82.0511 192.613 82.4337 192.423 82.9261C192.234 83.4148 192.139 83.9848 192.139 84.6364ZM204.23 89.1818C203.389 89.1818 202.664 88.9962 202.054 88.625C201.448 88.25 200.98 87.7273 200.651 87.0568C200.325 86.3826 200.162 85.5985 200.162 84.7045C200.162 83.8106 200.325 83.0227 200.651 82.3409C200.98 81.6553 201.438 81.1212 202.026 80.7386C202.616 80.3523 203.306 80.1591 204.094 80.1591C204.548 80.1591 204.997 80.2348 205.44 80.3864C205.884 80.5379 206.287 80.7841 206.651 81.125C207.014 81.4621 207.304 81.9091 207.52 82.4659C207.736 83.0227 207.844 83.7083 207.844 84.5227V85.0909H201.116V83.9318H206.48C206.48 83.4394 206.382 83 206.185 82.6136C205.991 82.2273 205.715 81.9223 205.355 81.6989C204.999 81.4754 204.579 81.3636 204.094 81.3636C203.56 81.3636 203.098 81.4962 202.707 81.7614C202.321 82.0227 202.024 82.3636 201.815 82.7841C201.607 83.2045 201.503 83.6553 201.503 84.1364V84.9091C201.503 85.5682 201.616 86.1269 201.844 86.5852C202.075 87.0398 202.395 87.3864 202.804 87.625C203.213 87.8598 203.688 87.9773 204.23 87.9773C204.582 87.9773 204.901 87.928 205.185 87.8295C205.473 87.7273 205.721 87.5758 205.929 87.375C206.137 87.1705 206.298 86.9167 206.412 86.6136L207.707 86.9773C207.571 87.4167 207.342 87.803 207.02 88.1364C206.698 88.4659 206.3 88.7235 205.827 88.9091C205.353 89.0909 204.821 89.1818 204.23 89.1818ZM214.656 87.1818L217.702 80.2727H218.974L215.202 89H214.111L210.406 80.2727H211.656L214.656 87.1818ZM211.224 80.2727V89H209.884V80.2727H211.224ZM218.088 89V80.2727H219.429V89H218.088ZM225.543 89.1818C224.702 89.1818 223.976 88.9962 223.366 88.625C222.76 88.25 222.293 87.7273 221.963 87.0568C221.637 86.3826 221.474 85.5985 221.474 84.7045C221.474 83.8106 221.637 83.0227 221.963 82.3409C222.293 81.6553 222.751 81.1212 223.338 80.7386C223.929 80.3523 224.618 80.1591 225.406 80.1591C225.861 80.1591 226.31 80.2348 226.753 80.3864C227.196 80.5379 227.599 80.7841 227.963 81.125C228.327 81.4621 228.616 81.9091 228.832 82.4659C229.048 83.0227 229.156 83.7083 229.156 84.5227V85.0909H222.429V83.9318H227.793C227.793 83.4394 227.694 83 227.497 82.6136C227.304 82.2273 227.027 81.9223 226.668 81.6989C226.312 81.4754 225.891 81.3636 225.406 81.3636C224.872 81.3636 224.41 81.4962 224.02 81.7614C223.634 82.0227 223.336 82.3636 223.128 82.7841C222.92 83.2045 222.815 83.6553 222.815 84.1364V84.9091C222.815 85.5682 222.929 86.1269 223.156 86.5852C223.387 87.0398 223.707 87.3864 224.116 87.625C224.526 87.8598 225.001 87.9773 225.543 87.9773C225.895 87.9773 226.213 87.928 226.497 87.8295C226.785 87.7273 227.033 87.5758 227.241 87.375C227.45 87.1705 227.611 86.9167 227.724 86.6136L229.02 86.9773C228.884 87.4167 228.654 87.803 228.332 88.1364C228.01 88.4659 227.613 88.7235 227.139 88.9091C226.666 89.0909 226.134 89.1818 225.543 89.1818ZM237.037 84.0227V85.2727H232.219V84.0227H237.037ZM232.537 80.2727V89H231.196V80.2727H232.537ZM238.06 80.2727V89H236.719V80.2727H238.06ZM246.349 84.0227V85.2727H241.531V84.0227H246.349ZM241.849 80.2727V89H240.509V80.2727H241.849ZM247.372 80.2727V89H246.031V80.2727H247.372ZM253.366 89.1818C252.579 89.1818 251.887 88.9943 251.293 88.6193C250.702 88.2443 250.24 87.7197 249.906 87.0455C249.577 86.3712 249.412 85.5833 249.412 84.6818C249.412 83.7727 249.577 82.9792 249.906 82.3011C250.24 81.6231 250.702 81.0966 251.293 80.7216C251.887 80.3466 252.579 80.1591 253.366 80.1591C254.154 80.1591 254.844 80.3466 255.435 80.7216C256.029 81.0966 256.491 81.6231 256.821 82.3011C257.154 82.9792 257.321 83.7727 257.321 84.6818C257.321 85.5833 257.154 86.3712 256.821 87.0455C256.491 87.7197 256.029 88.2443 255.435 88.6193C254.844 88.9943 254.154 89.1818 253.366 89.1818ZM253.366 87.9773C253.965 87.9773 254.457 87.8239 254.844 87.517C255.23 87.2102 255.516 86.8068 255.702 86.3068C255.887 85.8068 255.98 85.2652 255.98 84.6818C255.98 84.0985 255.887 83.5549 255.702 83.0511C255.516 82.5473 255.23 82.1402 254.844 81.8295C254.457 81.5189 253.965 81.3636 253.366 81.3636C252.768 81.3636 252.276 81.5189 251.889 81.8295C251.503 82.1402 251.217 82.5473 251.031 83.0511C250.846 83.5549 250.753 84.0985 250.753 84.6818C250.753 85.2652 250.846 85.8068 251.031 86.3068C251.217 86.8068 251.503 87.2102 251.889 87.517C252.276 87.8239 252.768 87.9773 253.366 87.9773ZM262.913 89.1818C262.095 89.1818 261.391 88.9886 260.8 88.6023C260.209 88.2159 259.754 87.6837 259.436 87.0057C259.118 86.3277 258.959 85.553 258.959 84.6818C258.959 83.7955 259.122 83.0133 259.447 82.3352C259.777 81.6534 260.235 81.1212 260.822 80.7386C261.413 80.3523 262.103 80.1591 262.891 80.1591C263.504 80.1591 264.057 80.2727 264.55 80.5C265.042 80.7273 265.446 81.0455 265.76 81.4545C266.074 81.8636 266.269 82.3409 266.345 82.8864H265.004C264.902 82.4886 264.675 82.1364 264.322 81.8295C263.974 81.5189 263.504 81.3636 262.913 81.3636C262.391 81.3636 261.932 81.5 261.538 81.7727C261.148 82.0417 260.843 82.4223 260.624 82.9148C260.408 83.4034 260.3 83.9773 260.3 84.6364C260.3 85.3106 260.406 85.8977 260.618 86.3977C260.834 86.8977 261.137 87.286 261.527 87.5625C261.921 87.839 262.383 87.9773 262.913 87.9773C263.262 87.9773 263.578 87.9167 263.862 87.7955C264.146 87.6742 264.387 87.5 264.584 87.2727C264.781 87.0455 264.921 86.7727 265.004 86.4545H266.345C266.269 86.9697 266.082 87.4337 265.783 87.8466C265.487 88.2557 265.095 88.5814 264.607 88.8239C264.122 89.0625 263.557 89.1818 262.913 89.1818ZM267.618 81.5227V80.2727H274.709V81.5227H271.845V89H270.504V81.5227H267.618ZM277.824 83.4318H280.324C281.347 83.4318 282.129 83.6913 282.67 84.2102C283.212 84.7292 283.483 85.3864 283.483 86.1818C283.483 86.7045 283.362 87.1799 283.119 87.608C282.877 88.0322 282.521 88.3712 282.051 88.625C281.581 88.875 281.006 89 280.324 89H276.665V80.2727H278.006V87.75H280.324C280.854 87.75 281.29 87.6098 281.631 87.3295C281.972 87.0492 282.142 86.6894 282.142 86.25C282.142 85.7879 281.972 85.411 281.631 85.1193C281.29 84.8277 280.854 84.6818 280.324 84.6818H277.824V83.4318ZM290.024 89V80.2727H291.365V84.0682H292.251L295.388 80.2727H297.115L293.592 84.4773L297.161 89H295.433L292.57 85.3182H291.365V89H290.024ZM301.804 89.1818C301.016 89.1818 300.325 88.9943 299.73 88.6193C299.139 88.2443 298.677 87.7197 298.344 87.0455C298.014 86.3712 297.849 85.5833 297.849 84.6818C297.849 83.7727 298.014 82.9792 298.344 82.3011C298.677 81.6231 299.139 81.0966 299.73 80.7216C300.325 80.3466 301.016 80.1591 301.804 80.1591C302.592 80.1591 303.281 80.3466 303.872 80.7216C304.467 81.0966 304.929 81.6231 305.259 82.3011C305.592 82.9792 305.759 83.7727 305.759 84.6818C305.759 85.5833 305.592 86.3712 305.259 87.0455C304.929 87.7197 304.467 88.2443 303.872 88.6193C303.281 88.9943 302.592 89.1818 301.804 89.1818ZM301.804 87.9773C302.402 87.9773 302.895 87.8239 303.281 87.517C303.668 87.2102 303.954 86.8068 304.139 86.3068C304.325 85.8068 304.418 85.2652 304.418 84.6818C304.418 84.0985 304.325 83.5549 304.139 83.0511C303.954 82.5473 303.668 82.1402 303.281 81.8295C302.895 81.5189 302.402 81.3636 301.804 81.3636C301.205 81.3636 300.713 81.5189 300.327 81.8295C299.94 82.1402 299.654 82.5473 299.469 83.0511C299.283 83.5549 299.19 84.0985 299.19 84.6818C299.19 85.2652 299.283 85.8068 299.469 86.3068C299.654 86.8068 299.94 87.2102 300.327 87.517C300.713 87.8239 301.205 87.9773 301.804 87.9773ZM312.578 87.1818L315.624 80.2727H316.896L313.124 89H312.033L308.328 80.2727H309.578L312.578 87.1818ZM309.146 80.2727V89H307.805V80.2727H309.146ZM316.01 89V80.2727H317.351V89H316.01ZM323.351 91.9773V77.3636H324.692V91.9773H323.351ZM323.351 89.1818C322.76 89.1818 322.222 89.0758 321.737 88.8636C321.252 88.6477 320.836 88.3428 320.487 87.9489C320.139 87.5511 319.87 87.0758 319.68 86.5227C319.491 85.9697 319.396 85.3561 319.396 84.6818C319.396 84 319.491 83.3826 319.68 82.8295C319.87 82.2727 320.139 81.7955 320.487 81.3977C320.836 81 321.252 80.6951 321.737 80.483C322.222 80.267 322.76 80.1591 323.351 80.1591H323.76V89.1818H323.351ZM323.351 87.9773H323.578V81.3636H323.351C322.904 81.3636 322.516 81.4545 322.186 81.6364C321.857 81.8144 321.584 82.0587 321.368 82.3693C321.156 82.6761 320.997 83.0284 320.891 83.4261C320.788 83.8239 320.737 84.2424 320.737 84.6818C320.737 85.2652 320.83 85.8068 321.016 86.3068C321.201 86.8068 321.487 87.2102 321.874 87.517C322.26 87.8239 322.752 87.9773 323.351 87.9773ZM324.692 89.1818H324.283V80.1591H324.692C325.283 80.1591 325.821 80.267 326.305 80.483C326.79 80.6951 327.207 81 327.555 81.3977C327.904 81.7955 328.173 82.2727 328.362 82.8295C328.552 83.3826 328.646 84 328.646 84.6818C328.646 85.3561 328.552 85.9697 328.362 86.5227C328.173 87.0758 327.904 87.5511 327.555 87.9489C327.207 88.3428 326.79 88.6477 326.305 88.8636C325.821 89.0758 325.283 89.1818 324.692 89.1818ZM324.692 87.9773C325.143 87.9773 325.531 87.8902 325.857 87.7159C326.186 87.5379 326.457 87.2955 326.669 86.9886C326.885 86.678 327.044 86.3258 327.146 85.9318C327.252 85.5341 327.305 85.1174 327.305 84.6818C327.305 84.0985 327.213 83.5549 327.027 83.0511C326.841 82.5473 326.555 82.1402 326.169 81.8295C325.783 81.5189 325.29 81.3636 324.692 81.3636H324.464V87.9773H324.692ZM334.241 89.1818C333.454 89.1818 332.762 88.9943 332.168 88.6193C331.577 88.2443 331.115 87.7197 330.781 87.0455C330.452 86.3712 330.287 85.5833 330.287 84.6818C330.287 83.7727 330.452 82.9792 330.781 82.3011C331.115 81.6231 331.577 81.0966 332.168 80.7216C332.762 80.3466 333.454 80.1591 334.241 80.1591C335.029 80.1591 335.719 80.3466 336.31 80.7216C336.904 81.0966 337.366 81.6231 337.696 82.3011C338.029 82.9792 338.196 83.7727 338.196 84.6818C338.196 85.5833 338.029 86.3712 337.696 87.0455C337.366 87.7197 336.904 88.2443 336.31 88.6193C335.719 88.9943 335.029 89.1818 334.241 89.1818ZM334.241 87.9773C334.84 87.9773 335.332 87.8239 335.719 87.517C336.105 87.2102 336.391 86.8068 336.577 86.3068C336.762 85.8068 336.855 85.2652 336.855 84.6818C336.855 84.0985 336.762 83.5549 336.577 83.0511C336.391 82.5473 336.105 82.1402 335.719 81.8295C335.332 81.5189 334.84 81.3636 334.241 81.3636C333.643 81.3636 333.151 81.5189 332.764 81.8295C332.378 82.1402 332.092 82.5473 331.906 83.0511C331.721 83.5549 331.628 84.0985 331.628 84.6818C331.628 85.2652 331.721 85.8068 331.906 86.3068C332.092 86.8068 332.378 87.2102 332.764 87.517C333.151 87.8239 333.643 87.9773 334.241 87.9773ZM340.243 92.2727V80.2727H341.538V81.6591H341.697C341.796 81.5076 341.932 81.3144 342.107 81.0795C342.285 80.8409 342.538 80.6288 342.868 80.4432C343.201 80.2538 343.652 80.1591 344.22 80.1591C344.955 80.1591 345.603 80.3428 346.163 80.7102C346.724 81.0777 347.161 81.5985 347.476 82.2727C347.79 82.947 347.947 83.7424 347.947 84.6591C347.947 85.5833 347.79 86.3845 347.476 87.0625C347.161 87.7367 346.726 88.2595 346.169 88.6307C345.612 88.9981 344.97 89.1818 344.243 89.1818C343.682 89.1818 343.233 89.089 342.896 88.9034C342.559 88.714 342.3 88.5 342.118 88.2614C341.936 88.0189 341.796 87.8182 341.697 87.6591H341.584V92.2727H340.243ZM341.561 84.6364C341.561 85.2955 341.658 85.8769 341.851 86.3807C342.044 86.8807 342.326 87.2727 342.697 87.5568C343.069 87.8371 343.523 87.9773 344.061 87.9773C344.622 87.9773 345.089 87.8295 345.464 87.5341C345.843 87.2348 346.127 86.8333 346.317 86.3295C346.51 85.822 346.607 85.2576 346.607 84.6364C346.607 84.0227 346.512 83.4697 346.322 82.9773C346.137 82.4811 345.855 82.089 345.476 81.8011C345.101 81.5095 344.629 81.3636 344.061 81.3636C343.516 81.3636 343.057 81.5019 342.686 81.7784C342.315 82.0511 342.035 82.4337 341.845 82.9261C341.656 83.4148 341.561 83.9848 341.561 84.6364ZM348.852 81.5227V80.2727H355.943V81.5227H353.08V89H351.739V81.5227H348.852ZM360.014 89.2045C359.461 89.2045 358.959 89.1004 358.509 88.892C358.058 88.6799 357.7 88.375 357.435 87.9773C357.17 87.5758 357.037 87.0909 357.037 86.5227C357.037 86.0227 357.135 85.6174 357.332 85.3068C357.529 84.9924 357.793 84.7462 358.122 84.5682C358.452 84.3902 358.815 84.2576 359.213 84.1705C359.615 84.0795 360.018 84.0076 360.423 83.9545C360.954 83.8864 361.384 83.8352 361.713 83.8011C362.046 83.7633 362.289 83.7008 362.44 83.6136C362.596 83.5265 362.673 83.375 362.673 83.1591V83.1136C362.673 82.553 362.52 82.1174 362.213 81.8068C361.91 81.4962 361.45 81.3409 360.832 81.3409C360.192 81.3409 359.69 81.4811 359.327 81.7614C358.963 82.0417 358.707 82.3409 358.56 82.6591L357.287 82.2045C357.514 81.6742 357.817 81.2614 358.196 80.9659C358.579 80.6667 358.995 80.4583 359.446 80.3409C359.901 80.2197 360.348 80.1591 360.787 80.1591C361.067 80.1591 361.389 80.1932 361.753 80.2614C362.12 80.3258 362.474 80.4602 362.815 80.6648C363.16 80.8693 363.446 81.178 363.673 81.5909C363.901 82.0038 364.014 82.5568 364.014 83.25V89H362.673V87.8182H362.605C362.514 88.0076 362.363 88.2102 362.151 88.4261C361.938 88.642 361.656 88.8258 361.304 88.9773C360.952 89.1288 360.522 89.2045 360.014 89.2045ZM360.219 88C360.749 88 361.196 87.8958 361.56 87.6875C361.927 87.4792 362.204 87.2102 362.389 86.8807C362.579 86.5511 362.673 86.2045 362.673 85.8409V84.6136C362.616 84.6818 362.491 84.7443 362.298 84.8011C362.109 84.8542 361.889 84.9015 361.639 84.9432C361.393 84.9811 361.152 85.0152 360.918 85.0455C360.687 85.072 360.499 85.0947 360.355 85.1136C360.007 85.1591 359.681 85.233 359.378 85.3352C359.079 85.4337 358.836 85.5833 358.651 85.7841C358.469 85.9811 358.378 86.25 358.378 86.5909C358.378 87.0568 358.55 87.4091 358.895 87.6477C359.243 87.8826 359.685 88 360.219 88ZM367.439 89.0909C367.159 89.0909 366.918 88.9905 366.717 88.7898C366.517 88.589 366.416 88.3485 366.416 88.0682C366.416 87.7879 366.517 87.5473 366.717 87.3466C366.918 87.1458 367.159 87.0455 367.439 87.0455C367.719 87.0455 367.96 87.1458 368.161 87.3466C368.361 87.5473 368.462 87.7879 368.462 88.0682C368.462 88.2538 368.414 88.4242 368.32 88.5795C368.229 88.7348 368.106 88.8598 367.95 88.9545C367.799 89.0455 367.628 89.0909 367.439 89.0909Z" fill="url(#paint1_linear_22_483)"/>
</g>
<defs>
<filter id="filter0_i_22_483" x="7.36" y="13.3042" width="266.112" height="48.5918" filterUnits="userSpaceOnUse" color-interpolation-filters="sRGB">
<feFlood flood-opacity="0" result="BackgroundImageFix"/>
<feBlend mode="normal" in="SourceGraphic" in2="BackgroundImageFix" result="shape"/>
<feColorMatrix in="SourceAlpha" type="matrix" values="0 0 0 0 0 0 0 0 0 0 0 0 0 0 0 0 0 0 127 0" result="hardAlpha"/>
<feOffset dy="2"/>
<feGaussianBlur stdDeviation="3"/>
<feComposite in2="hardAlpha" operator="arithmetic" k2="-1" k3="1"/>
<feColorMatrix type="matrix" values="0 0 0 0 0 0 0 0 0 0 0 0 0 0 0 0 0 0 0.15 0"/>
<feBlend mode="normal" in2="shape" result="effect1_innerShadow_22_483"/>
</filter>
<filter id="filter1_i_22_483" x="1.40909" y="77.2046" width="367.053" height="17.0684" filterUnits="userSpaceOnUse" color-interpolation-filters="sRGB">
<feFlood flood-opacity="0" result="BackgroundImageFix"/>
<feBlend mode="normal" in="SourceGraphic" in2="BackgroundImageFix" result="shape"/>
<feColorMatrix in="SourceAlpha" type="matrix" values="0 0 0 0 0 0 0 0 0 0 0 0 0 0 0 0 0 0 127 0" result="hardAlpha"/>
<feOffset dy="2"/>
<feGaussianBlur stdDeviation="3"/>
<feComposite in2="hardAlpha" operator="arithmetic" k2="-1" k3="1"/>
<feColorMatrix type="matrix" values="0 0 0 0 0 0 0 0 0 0 0 0 0 0 0 0 0 0 0.15 0"/>
<feBlend mode="normal" in2="shape" result="effect1_innerShadow_22_483"/>
</filter>
<linearGradient id="paint0_linear_22_483" x1="178.061" y1="74" x2="100.067" y2="4.33452" gradientUnits="userSpaceOnUse">
<stop stop-color="#E0E4EB"/>
<stop offset="0.4" stop-color="white"/>
<stop offset="0.7" stop-color="#A4B0C1"/>
<stop offset="1" stop-color="#E0E4EB"/>
</linearGradient>
<linearGradient id="paint1_linear_22_483" x1="233.626" y1="93" x2="225.2" y2="54.5397" gradientUnits="userSpaceOnUse">
<stop stop-color="#E0E4EB"/>
<stop offset="0.4" stop-color="white"/>
<stop offset="0.7" stop-color="#A4B0C1"/>
<stop offset="1" stop-color="#E0E4EB"/>
</linearGradient>
</defs>
</svg>
