<svg width="267" height="47" viewBox="0 0 267 47" fill="none" xmlns="http://www.w3.org/2000/svg">
<g filter="url(#filter0_i_52_252)">
<path d="M43.136 0.896011V45.696H38.784V4.60801H38.4L22.912 34.304H20.928L3.328 8.12801H2.944L4.352 45.696H-4.76837e-07L1.6 1.14441e-05H2.88L23.04 29.952H23.424L38.528 0.896011H43.136ZM45.0525 23.296C45.0525 20.0107 45.6285 16.96 46.7805 14.144C47.9752 11.2853 49.6178 8.81068 51.7085 6.72001C53.8418 4.58668 56.3165 2.94401 59.1325 1.79201C61.9912 0.597345 65.0632 1.14441e-05 68.3485 1.14441e-05C71.6338 1.14441e-05 74.6845 0.597345 77.5005 1.79201C80.3592 2.94401 82.8338 4.58668 84.9245 6.72001C87.0578 8.81068 88.7005 11.2853 89.8525 14.144C91.0472 16.96 91.6445 20.0107 91.6445 23.296C91.6445 26.5813 91.0472 29.6533 89.8525 32.512C88.7005 35.328 87.0578 37.8027 84.9245 39.936C82.8338 42.0267 80.3592 43.6693 77.5005 44.864C74.6845 46.016 71.6338 46.592 68.3485 46.592C65.0632 46.592 61.9912 46.016 59.1325 44.864C56.3165 43.6693 53.8418 42.0267 51.7085 39.936C49.6178 37.8027 47.9752 35.328 46.7805 32.512C45.6285 29.6533 45.0525 26.5813 45.0525 23.296ZM49.9165 23.296C49.9165 27.648 50.6845 31.4667 52.2205 34.752C53.7565 37.9947 55.9112 40.5333 58.6845 42.368C61.4578 44.16 64.6792 45.056 68.3485 45.056C72.0178 45.056 75.2392 44.16 78.0125 42.368C80.7858 40.5333 82.9405 37.9733 84.4765 34.688C86.0125 31.4027 86.7805 27.6053 86.7805 23.296C86.7805 18.9867 86.0125 15.2107 84.4765 11.968C82.9405 8.68268 80.7858 6.12268 78.0125 4.28801C75.2392 2.45334 72.0178 1.53601 68.3485 1.53601C64.6792 1.53601 61.4578 2.45334 58.6845 4.28801C55.9538 6.08001 53.7992 8.61868 52.2205 11.904C50.6845 15.1467 49.9165 18.944 49.9165 23.296ZM92.585 45.696L94.185 1.14441e-05H94.953L127.145 38.912H127.529L126.121 0.896011H130.473L128.873 46.592H128.105L95.913 7.68001H95.529L96.937 45.696H92.585ZM127.994 45.696L145.21 0.896011H149.178L166.394 45.696H161.722L153.786 24.704H139.258L132.666 45.696H127.994ZM145.658 4.22401L139.706 23.168H153.21L146.042 4.22401H145.658ZM165.255 0.896011H173.831C178.354 0.896011 181.852 1.85601 184.327 3.77601C186.844 5.65335 188.103 8.29868 188.103 11.712C188.103 14.3573 187.314 16.5547 185.735 18.304C184.199 20.0533 181.959 21.2267 179.015 21.824V22.208C181.831 22.7627 184.135 24.0853 185.927 26.176C187.719 28.2667 189.063 30.848 189.959 33.92C190.77 36.736 191.559 38.9333 192.327 40.512C193.138 42.048 194.012 43.1573 194.951 43.84C195.932 44.5227 197.084 45.0133 198.407 45.312V45.696H195.783C193.906 45.696 192.348 45.3547 191.111 44.672C189.916 43.9893 188.892 42.8373 188.039 41.216C187.186 39.5947 186.375 37.3547 185.607 34.496C184.37 30.1013 182.727 26.9867 180.679 25.152C178.631 23.3173 176.135 22.4 173.191 22.4H172.807V21.248H173.191C180.06 21.248 183.495 18.0907 183.495 11.776C183.495 5.54668 180.274 2.43201 173.831 2.43201H169.607V45.696H165.255V0.896011ZM229.259 40.192L228.875 44.096C227.681 44.608 226.23 45.056 224.523 45.44C222.817 45.824 221.089 46.1013 219.339 46.272C217.59 46.4853 216.033 46.592 214.667 46.592C211.211 46.592 208.011 46.016 205.067 44.864C202.123 43.6693 199.542 42.0267 197.323 39.936C195.147 37.8453 193.441 35.392 192.203 32.576C190.966 29.7173 190.347 26.624 190.347 23.296C190.347 19.968 190.966 16.896 192.203 14.08C193.441 11.2213 195.147 8.74668 197.323 6.65601C199.542 4.56535 202.123 2.94401 205.067 1.79201C208.011 0.597345 211.211 1.14441e-05 214.667 1.14441e-05C216.075 1.14441e-05 217.654 0.106678 219.403 0.320011C221.153 0.533344 222.859 0.832011 224.523 1.21601C226.187 1.55735 227.595 1.96268 228.747 2.43201L228.427 6.01601H228.043C226.465 4.56535 224.481 3.45601 222.091 2.68801C219.702 1.92001 217.227 1.53601 214.667 1.53601C210.827 1.53601 207.435 2.45334 204.491 4.28801C201.59 6.08001 199.307 8.61868 197.643 11.904C196.022 15.1467 195.211 18.944 195.211 23.296C195.211 27.6907 196.022 31.5093 197.643 34.752C199.307 37.9947 201.59 40.5333 204.491 42.368C207.393 44.16 210.785 45.056 214.667 45.056C217.569 45.056 220.257 44.5867 222.731 43.648C225.249 42.7093 227.297 41.5573 228.875 40.192H229.259ZM230.528 45.696V0.896011H234.88V21.632H261.76V0.896011H266.112V45.696H261.76V23.168H234.88V45.696H230.528Z" fill="url(#paint0_linear_52_252)"/>
</g>
<defs>
<filter id="filter0_i_52_252" x="0" y="0" width="266.112" height="48.592" filterUnits="userSpaceOnUse" color-interpolation-filters="sRGB">
<feFlood flood-opacity="0" result="BackgroundImageFix"/>
<feBlend mode="normal" in="SourceGraphic" in2="BackgroundImageFix" result="shape"/>
<feColorMatrix in="SourceAlpha" type="matrix" values="0 0 0 0 0 0 0 0 0 0 0 0 0 0 0 0 0 0 127 0" result="hardAlpha"/>
<feOffset dy="2"/>
<feGaussianBlur stdDeviation="3"/>
<feComposite in2="hardAlpha" operator="arithmetic" k2="-1" k3="1"/>
<feColorMatrix type="matrix" values="0 0 0 0 0 0 0 0 0 0 0 0 0 0 0 0 0 0 0.15 0"/>
<feBlend mode="normal" in2="shape" result="effect1_innerShadow_52_252"/>
</filter>
<linearGradient id="paint0_linear_52_252" x1="173.869" y1="60.696" x2="89.5592" y2="-8.61846" gradientUnits="userSpaceOnUse">
<stop stop-color="#2A2D32"/>
<stop offset="0.4" stop-color="#4A4F57"/>
<stop offset="0.7" stop-color="#7A818A"/>
<stop offset="1" stop-color="#2A2D32"/>
</linearGradient>
</defs>
</svg>
